<?xml version="1.0" encoding="UTF-8"?>
<svg width="63px" height="19px" viewBox="0 0 63 19" version="1.1" xmlns="http://www.w3.org/2000/svg" xmlns:xlink="http://www.w3.org/1999/xlink">
    <!-- Generator: Sketch 47.1 (45422) - http://www.bohemiancoding.com/sketch -->
    <title>noun_413090_cc</title>
    <desc>Created with Sketch.</desc>
    <defs></defs>
    <g id="Page-1" stroke="none" stroke-width="1" fill="none" fill-rule="evenodd">
        <g id="Desktop-HD" transform="translate(-1206.000000, -459.000000)" fill-rule="nonzero" fill="#FFFFFF">
            <g id="noun_413090_cc" transform="translate(1206.000000, 459.000000)">
                <g id="Group">
                    <g id="a-link">
                        <g id="a">
                            <path d="M62.7352941,3.59642857 C62.7352941,1.19880952 61.5182571,0 59.084183,0 L4.45529412,0 C1.97529412,0 0.735294118,1.19880952 0.735294118,3.59642857 L0.735294118,15.4035714 C0.735294118,17.8011905 1.97529412,19 4.45529412,19 L59.084183,19 C59.3827015,19 59.6008497,18.9886905 59.7386275,18.9660714 C61.7364052,18.7625 62.7352941,17.575 62.7352941,15.4035714 L62.7352941,3.59642857 L62.7352941,3.59642857 Z M58.9563751,1.80952381 C60.2599682,1.80952381 60.9117647,2.44344593 60.9117647,3.71129016 L60.9117647,15.3220742 C60.9117647,16.4342182 60.4086235,17.0570189 59.4023412,17.1904762 L54.3251893,17.1904762 L54.3251893,14.1209586 C54.3251893,13.8985298 54.2451441,13.7094653 54.0850538,13.5537651 C53.9249634,13.3980649 53.7305679,13.3202149 53.5018674,13.3202149 C53.2502968,13.3202149 53.0444663,13.3980649 52.884376,13.5537651 C52.7242856,13.7094653 52.6442404,13.8985298 52.6442404,14.1209586 L52.6442404,17.1904762 L48.9049867,17.1904762 L48.9049867,12.1858279 C48.9049867,11.9633991 48.8135065,11.7632132 48.630546,11.5852701 C48.4704557,11.4295699 48.2760602,11.3517199 48.0473597,11.3517199 C47.8186592,11.3517199 47.6242637,11.4295699 47.4641733,11.5852701 C47.2812129,11.7632132 47.1897327,11.9633991 47.1897327,12.1858279 L47.1897327,17.1904762 L43.450479,17.1904762 L43.450479,14.1209586 C43.450479,13.8985298 43.3704338,13.7094653 43.2103434,13.5537651 C43.050253,13.3980649 42.8558576,13.3202149 42.627157,13.3202149 C42.3755864,13.3202149 42.169756,13.3980649 42.0096656,13.5537651 C41.8495752,13.7094653 41.76953,13.8985298 41.76953,14.1209586 L41.76953,17.1904762 L38.0302763,17.1904762 L38.0302763,14.1209586 C38.0302763,13.9207726 37.9387961,13.7317082 37.7558357,13.5537651 C37.5957453,13.3980649 37.4013498,13.3202149 37.1726493,13.3202149 C36.9439488,13.3202149 36.7495533,13.3980649 36.5894629,13.5537651 C36.4065025,13.7317082 36.3150223,13.9207726 36.3150223,14.1209586 L36.3150223,17.1904762 L32.5757686,17.1904762 L32.5757686,12.1858279 C32.5757686,11.9411562 32.4957234,11.7409703 32.335633,11.5852701 C32.1755426,11.4295699 31.9697122,11.3517199 31.7181416,11.3517199 C31.489441,11.3517199 31.2950456,11.4295699 31.1349552,11.5852701 C30.9748648,11.7409703 30.8948197,11.9411562 30.8948197,12.1858279 L30.8948197,17.1904762 L27.1555659,17.1904762 L27.1555659,14.1209586 C27.1555659,13.9207726 27.0640857,13.7317082 26.8811253,13.5537651 C26.7210349,13.3980649 26.5266395,13.3202149 26.2979389,13.3202149 C26.0692384,13.3202149 25.8748429,13.3980649 25.7147526,13.5537651 C25.5317921,13.7317082 25.4403119,13.9207726 25.4403119,14.1209586 L25.4403119,17.1904762 L21.7010582,17.1904762 L21.7010582,14.1209586 C21.7010582,13.8985298 21.621013,13.7094653 21.4609226,13.5537651 C21.3008323,13.3980649 21.0950018,13.3202149 20.8434312,13.3202149 C20.6147307,13.3202149 20.4203352,13.3980649 20.2602448,13.5537651 C20.1001545,13.7094653 20.0201093,13.8985298 20.0201093,14.1209586 L20.0201093,17.1904762 L16.2808556,17.1904762 L16.2808556,12.1858279 C16.2808556,11.9633991 16.1893753,11.7632132 16.0064149,11.5852701 C15.8463245,11.4295699 15.6519291,11.3517199 15.4232286,11.3517199 C15.171658,11.3517199 14.9658275,11.4295699 14.8057371,11.5852701 C14.6456467,11.7409703 14.5656015,11.9411562 14.5656015,12.1858279 L14.5656015,17.1904762 L10.8263478,17.1904762 L10.8263478,14.1209586 C10.8263478,13.8985298 10.7463026,13.7094653 10.5862123,13.5537651 C10.4261219,13.3980649 10.2202914,13.3202149 9.96872082,13.3202149 C9.74002029,13.3202149 9.54562483,13.3980649 9.38553446,13.5537651 C9.20257403,13.7317082 9.11109382,13.9207726 9.11109382,14.1209586 L9.11109382,17.1904762 L4.54851817,17.1904762 C3.22205508,17.1904762 2.55882353,16.5676755 2.55882353,15.3220742 L2.55882353,3.71129016 C2.55882353,2.44344593 3.22205508,1.80952381 4.54851817,1.80952381 L58.9563751,1.80952381 Z" id="Shape"></path>
                        </g>
                    </g>
                </g>
            </g>
        </g>
    </g>
</svg>