<?xml version="1.0" encoding="UTF-8"?>
<svg width="67px" height="32px" viewBox="0 0 67 32" version="1.1" xmlns="http://www.w3.org/2000/svg" xmlns:xlink="http://www.w3.org/1999/xlink">
    <!-- Generator: Sketch 47.1 (45422) - http://www.bohemiancoding.com/sketch -->
    <title>noun_413090_cc</title>
    <desc>Created with Sketch.</desc>
    <defs></defs>
    <g id="Page-1" stroke="none" stroke-width="1" fill="none" fill-rule="evenodd">
        <g id="Desktop-HD" transform="translate(-783.000000, -452.000000)" fill-rule="nonzero" fill="#FFFFFF">
            <g id="noun_1046927_cc" transform="translate(783.000000, 452.000000)">
                <path d="M49.3823155,16.3927367 C49.3823155,17.2275193 48.965989,17.7840411 48.3414992,17.7840411 L37.9333359,17.7840411 C37.3088461,17.7840411 36.8925196,17.2275193 36.8925196,16.3927367 C36.8925196,15.5579541 37.3088461,15.0014324 37.9333359,15.0014324 L48.3414992,15.0014324 C48.965989,15.0014324 49.3823155,15.5579541 49.3823155,16.3927367 Z M41.0557849,47.6517159 C41.0557849,48.2778029 41.6108869,48.6951942 42.44354,48.6951942 C43.276193,48.6951942 43.8312951,48.2778029 43.8312951,47.6517159 L43.8312951,19.4778029 L41.0557849,19.4778029 L41.0557849,47.6517159 Z M43.8312951,-15.6526319 C43.8312951,-16.2787188 43.276193,-16.6961101 42.44354,-16.6961101 C41.6108869,-16.6961101 41.0557849,-16.2787188 41.0557849,-15.6526319 L41.0557849,12.5212812 L43.8312951,12.5212812 L43.8312951,-15.6526319 Z M28.9129277,-3.08552413 L18.5047645,-3.08552413 C17.8802747,-3.08552413 17.4639482,-2.52900239 17.4639482,-1.69421978 C17.4639482,-0.859437173 17.8802747,-0.302915434 18.5047645,-0.302915434 L28.9129277,-0.302915434 C29.5374175,-0.302915434 29.9537441,-0.859437173 29.9537441,-1.69421978 C29.9537441,-2.52900239 29.5374175,-3.08552413 28.9129277,-3.08552413 Z M23.0149686,47.7347237 C23.0149686,48.3654484 23.5700706,48.7859314 24.4027237,48.7859314 C25.2353767,48.7859314 25.7904788,48.3654484 25.7904788,47.7347237 L25.7904788,1.48158362 L23.0149686,1.48158362 L23.0149686,47.7347237 Z M25.7904788,-15.7749897 C25.7904788,-16.3821043 25.2353767,-16.7868474 24.4027237,-16.7868474 C23.5700706,-16.7868474 23.0149686,-16.3821043 23.0149686,-15.7749897 L23.0149686,-5.6564126 L25.7904788,-5.6564126 L25.7904788,-15.7749897 Z" id="Shape" transform="translate(33.423132, 15.999542) rotate(-270.000000) translate(-33.423132, -15.999542) "></path>
            </g>
        </g>
    </g>
</svg>
