<?xml version="1.0" encoding="UTF-8"?>
<svg width="62px" height="50px" viewBox="0 0 62 50" version="1.1" xmlns="http://www.w3.org/2000/svg" xmlns:xlink="http://www.w3.org/1999/xlink">
    <!-- Generator: Sketch 47.1 (45422) - http://www.bohemiancoding.com/sketch -->
    <title>noun_685099_cc</title>
    <desc>Created with Sketch.</desc>
    <defs></defs>
    <g id="Page-1" stroke="none" stroke-width="1" fill="none" fill-rule="evenodd">
        <g id="Desktop-HD" transform="translate(-995.000000, -443.000000)" fill-rule="nonzero" fill="#FFFFFF">
            <g id="noun_685099_cc" transform="translate(995.000000, 443.000000)">
                <g id="Group">
                    <path d="M39.6640441,20.8722727 C40.2544118,20.8722727 40.7326324,20.3954545 40.7326324,19.8068182 C40.7326324,19.79 40.7285294,19.7740909 40.7276176,19.7572727 L40.7759412,19.7572727 C40.7759412,17.4109091 42.6737794,15.5109091 45.0238529,15.4972727 C47.3780294,15.5068182 49.2808824,17.4081818 49.2808824,19.7577273 C49.2808824,22.1131818 47.3693676,24.0190909 45.0069853,24.0190909 L22.4585882,24.0190909 C21.8682206,24.0190909 21.39,24.4959091 21.39,25.0845455 C21.39,25.6731818 21.8682206,26.15 22.4585882,26.15 L45.0074412,26.15 C48.5505588,26.15 51.4180588,23.2909091 51.4180588,19.7581818 C51.4180588,16.2395455 48.5733529,13.3913636 45.0498382,13.3681818 L45.0498382,13.3654545 C45.0411765,13.3654545 45.0329706,13.3668182 45.0238529,13.3668182 C45.0179265,13.3668182 45.0129118,13.3659091 45.0069853,13.3659091 L45.0069853,13.3677273 C41.5782941,13.3904545 38.8010588,16.0890909 38.6528971,19.4759091 C38.6187059,19.5804545 38.595,19.6909091 38.595,19.8072727 C38.5954559,20.3954545 39.0736765,20.8722727 39.6640441,20.8722727 Z" id="Shape"></path>
                    <path d="M42.7713382,38.8913636 L42.7699706,38.8913636 C42.7471765,35.4231818 39.9603676,32.6190909 36.4933824,32.5486364 L36.4933824,32.5418182 L16.0602794,32.5418182 L16.0598235,32.5418182 C15.4694559,32.5418182 14.9912353,33.0186364 14.9912353,33.6072727 C14.9912353,34.1959091 15.4694559,34.6727273 16.0598235,34.6727273 L16.0602794,34.6727273 L36.3611765,34.6727273 C38.7130735,34.6727273 40.6172941,36.5627273 40.6337059,38.9040909 C40.6264118,41.2536364 38.7185441,43.1531818 36.3602647,43.1531818 C34.1082059,43.1531818 32.2691765,41.4195455 32.1027794,39.2163636 C32.1196471,39.1413636 32.1301324,39.0636364 32.1301324,38.9836364 C32.1301324,38.395 31.6519118,37.9181818 31.0615441,37.9181818 C30.5026324,37.9181818 30.0494853,38.3468182 30.0025294,38.8918182 L29.9496471,38.8918182 C29.9496471,42.425 32.8176029,45.2836364 36.3602647,45.2836364 C39.88925,45.2836364 42.7458088,42.4477273 42.7690588,38.9340909 L42.77225,38.9340909 C42.77225,38.9240909 42.7708824,38.9140909 42.7708824,38.9040909 C42.7708824,38.8995455 42.7713382,38.895 42.7713382,38.8913636 Z" id="Shape"></path>
                    <path d="M61.9794853,38.8913636 L61.9772059,38.8913636 C61.9284265,33.0981818 57.2756912,28.4127273 51.4841618,28.2863636 L51.4841618,28.2804545 L45.0069853,28.2804545 L44.6978971,28.2804545 L16.0602794,28.2804545 C15.4699118,28.2804545 14.9916912,28.7572727 14.9916912,29.3459091 C14.9916912,29.9345455 15.4699118,30.4113636 16.0602794,30.4113636 L44.6983529,30.4113636 L45.0074412,30.4113636 L51.2457353,30.4113636 C55.9823529,30.4113636 59.8154118,34.2209091 59.8409412,38.9372727 C59.8154118,43.65 55.9891912,47.4563636 51.2580441,47.4631818 C49.0114559,47.4563636 47.1792647,45.7254545 47.0128676,43.5268182 C47.0292794,43.4518182 47.0402206,43.3745455 47.0402206,43.2940909 C47.0402206,42.7054545 46.562,42.2286364 45.9716324,42.2286364 C45.4127206,42.2286364 44.9600294,42.6572727 44.9126176,43.2022727 L44.8588235,43.2022727 C44.8588235,46.7277273 47.7140147,49.5795455 51.2452794,49.5931818 L51.2452794,49.5945455 C51.25075,49.5945455 51.2557647,49.5940909 51.2616912,49.5940909 C51.2644265,49.5940909 51.2671618,49.5945455 51.2698971,49.5945455 L51.2698971,49.5940909 C57.1608088,49.5809091 61.9275147,44.8486364 61.9772059,38.9836364 L61.9794853,38.9836364 C61.9794853,38.9681818 61.9785735,38.9531818 61.9781176,38.9372727 C61.9785735,38.9218182 61.9794853,38.9068182 61.9794853,38.8913636 Z" id="Shape"></path>
                    <path d="M21.39,6.79818182 C21.9803676,6.79818182 22.4585882,6.32136364 22.4585882,5.73272727 L22.4585882,1.47363636 C22.4585882,1.47272727 22.4590441,1.47227273 22.4590441,1.47136364 C22.4590441,0.883181818 21.9803676,0.405909091 21.3904559,0.405909091 C20.8000882,0.405909091 20.3214118,0.883181818 20.3214118,1.47136364 L20.3214118,5.73272727 C20.3214118,6.32136364 20.8000882,6.79818182 21.39,6.79818182 Z" id="Shape"></path>
                    <path d="M5.363,20.6477273 L1.09138235,20.6477273 L1.08910294,20.6477273 C0.499191176,20.6477273 0.0205147059,21.1245455 0.0205147059,21.7131818 C0.0205147059,22.3018182 0.499191176,22.7786364 1.08910294,22.7786364 L5.363,22.7786364 C5.95336765,22.7786364 6.43158824,22.3018182 6.43158824,21.7131818 C6.43113235,21.125 5.95336765,20.6477273 5.363,20.6477273 Z" id="Shape"></path>
                    <path d="M9.3,10.7031818 C9.71758824,11.1195455 10.3936618,11.1195455 10.8107941,10.7031818 C11.2279265,10.2872727 11.2283824,9.61318182 10.8107941,9.19681818 L7.79011765,6.185 C7.78966176,6.18454545 7.78966176,6.18409091 7.78920588,6.18363636 C7.37161765,5.76772727 6.69508824,5.76727273 6.27795588,6.18363636 C5.86082353,6.59954545 5.86082353,7.27409091 6.27795588,7.69 L9.3,10.7031818 Z" id="Shape"></path>
                    <path d="M33.4772647,10.7031818 L36.4993088,7.69 C36.9168971,7.27363636 36.9168971,6.59954545 36.4993088,6.18363636 C36.0826324,5.76772727 35.4061029,5.76727273 34.9885147,6.18363636 L31.9682941,9.19545455 C31.9673824,9.19590909 31.9673824,9.19636364 31.9664706,9.19681818 C31.5493382,9.61272727 31.5488824,10.2872727 31.9664706,10.7031818 C32.3836029,11.1195455 33.0605882,11.1190909 33.4772647,10.7031818 Z" id="Shape"></path>
                    <path d="M21.39,11.2836364 C27.2959559,11.2836364 32.0749706,16.0486364 32.0749706,21.9372727 L34.2116912,21.9372727 C34.2116912,14.8709091 28.4771471,9.15318182 21.39,9.15318182 C14.3192647,9.15318182 8.59657353,14.8445455 8.56967647,21.8881818 L8.56830882,21.8881818 C8.56830882,21.8963636 8.56876471,21.9040909 8.56876471,21.9122727 C8.56876471,21.9209091 8.56830882,21.9290909 8.56830882,21.9377273 L8.56967647,21.9377273 C8.58380882,25.7077273 10.2304559,29.0886364 12.8422059,31.4186364 L12.8422059,28.285 C11.5037353,26.5090909 10.7095882,24.3009091 10.7054853,21.9068182 C10.7223529,16.0322727 15.4940735,11.2836364 21.39,11.2836364 Z" id="Shape"></path>
                </g>
            </g>
        </g>
    </g>
</svg>